<?xml version="1.0" encoding="UTF-8"?>
<svg xmlns="http://www.w3.org/2000/svg" xmlns:xlink="http://www.w3.org/1999/xlink" width="150px" height="150px" viewBox="0 0 150 150" version="1.1">
<g id="surface1">
<rect x="0" y="0" width="150" height="150" style="fill:rgb(100%,100%,100%);fill-opacity:1;stroke:none;"/>
<path style=" stroke:none;fill-rule:nonzero;fill:rgb(0%,0%,0%);fill-opacity:1;" d="M 121.371094 77.015625 L 121.371094 12.5 L 28.628906 12.5 L 28.628906 77.015625 L 12.5 77.015625 L 12.5 137.5 L 137.5 137.5 L 137.5 77.015625 Z M 32.660156 16.53125 L 117.339844 16.53125 L 117.339844 77.015625 L 32.660156 77.015625 Z M 72.984375 133.46875 L 16.53125 133.46875 L 16.53125 81.046875 L 72.984375 81.046875 Z M 133.46875 133.46875 L 77.015625 133.46875 L 77.015625 81.046875 L 133.46875 81.046875 Z M 133.46875 133.46875 "/>
<path style=" stroke:none;fill-rule:nonzero;fill:rgb(0%,0%,0%);fill-opacity:1;" d="M 103.289062 22.027344 L 99.328125 21.664062 C 83.199219 20.199219 66.800781 20.199219 50.671875 21.664062 L 46.707031 22.027344 C 42.144531 22.441406 38.503906 25.902344 37.851562 30.441406 C 37.082031 35.839844 36.695312 41.335938 36.695312 46.773438 C 36.695312 52.210938 37.082031 57.707031 37.851562 63.109375 C 38.503906 67.648438 42.144531 71.105469 46.710938 71.519531 L 50.671875 71.882812 C 58.738281 72.613281 66.921875 72.984375 75 72.984375 C 83.078125 72.984375 91.261719 72.613281 99.328125 71.882812 L 103.289062 71.519531 C 107.855469 71.105469 111.496094 67.644531 112.148438 63.105469 C 112.917969 57.707031 113.304688 52.210938 113.304688 46.773438 C 113.304688 41.335938 112.917969 35.839844 112.148438 30.441406 C 111.496094 25.902344 107.855469 22.441406 103.289062 22.027344 Z M 108.152344 62.535156 C 107.773438 65.214844 105.617188 67.261719 102.921875 67.503906 L 98.960938 67.863281 C 83.074219 69.304688 66.921875 69.304688 51.035156 67.863281 L 47.074219 67.503906 C 44.378906 67.261719 42.226562 65.214844 41.84375 62.535156 C 41.101562 57.328125 40.726562 52.023438 40.726562 46.773438 C 40.726562 41.523438 41.101562 36.222656 41.847656 31.011719 C 42.226562 28.332031 44.382812 26.289062 47.078125 26.042969 L 51.039062 25.683594 C 58.980469 24.964844 67.042969 24.597656 75 24.597656 C 82.957031 24.597656 91.019531 24.964844 98.960938 25.683594 L 102.925781 26.042969 C 105.621094 26.289062 107.773438 28.332031 108.15625 31.011719 C 108.898438 36.222656 109.273438 41.523438 109.273438 46.773438 C 109.273438 52.023438 108.898438 57.328125 108.152344 62.535156 Z M 108.152344 62.535156 "/>
<path style=" stroke:none;fill-rule:nonzero;fill:rgb(0%,0%,0%);fill-opacity:1;" d="M 20.566406 109.273438 L 68.953125 109.273438 L 68.953125 85.082031 L 20.566406 85.082031 Z M 54.839844 89.113281 L 64.917969 89.113281 L 64.917969 95.160156 L 54.839844 95.160156 Z M 54.839844 99.195312 L 64.917969 99.195312 L 64.917969 105.242188 L 54.839844 105.242188 Z M 38.710938 89.113281 L 50.804688 89.113281 L 50.804688 95.160156 L 38.710938 95.160156 Z M 38.710938 99.195312 L 50.804688 99.195312 L 50.804688 105.242188 L 38.710938 105.242188 Z M 24.597656 89.113281 L 34.675781 89.113281 L 34.675781 95.160156 L 24.597656 95.160156 Z M 24.597656 99.195312 L 34.675781 99.195312 L 34.675781 105.242188 L 24.597656 105.242188 Z M 24.597656 99.195312 "/>
<path style=" stroke:none;fill-rule:nonzero;fill:rgb(0%,0%,0%);fill-opacity:1;" d="M 28.628906 113.304688 C 24.179688 113.304688 20.566406 116.921875 20.566406 121.371094 C 20.566406 125.820312 24.179688 129.433594 28.628906 129.433594 C 33.078125 129.433594 36.695312 125.820312 36.695312 121.371094 C 36.695312 116.921875 33.078125 113.304688 28.628906 113.304688 Z M 28.628906 125.402344 C 26.40625 125.402344 24.597656 123.59375 24.597656 121.371094 C 24.597656 119.148438 26.40625 117.339844 28.628906 117.339844 C 30.851562 117.339844 32.660156 119.148438 32.660156 121.371094 C 32.660156 123.59375 30.851562 125.402344 28.628906 125.402344 Z M 28.628906 125.402344 "/>
<path style=" stroke:none;fill-rule:nonzero;fill:rgb(0%,0%,0%);fill-opacity:1;" d="M 44.757812 113.304688 C 40.308594 113.304688 36.695312 116.921875 36.695312 121.371094 C 36.695312 125.820312 40.308594 129.433594 44.757812 129.433594 C 49.207031 129.433594 52.824219 125.820312 52.824219 121.371094 C 52.824219 116.921875 49.207031 113.304688 44.757812 113.304688 Z M 44.757812 125.402344 C 42.535156 125.402344 40.726562 123.59375 40.726562 121.371094 C 40.726562 119.148438 42.535156 117.339844 44.757812 117.339844 C 46.980469 117.339844 48.789062 119.148438 48.789062 121.371094 C 48.789062 123.59375 46.980469 125.402344 44.757812 125.402344 Z M 44.757812 125.402344 "/>
<path style=" stroke:none;fill-rule:nonzero;fill:rgb(0%,0%,0%);fill-opacity:1;" d="M 60.886719 113.304688 C 56.441406 113.304688 52.824219 116.921875 52.824219 121.371094 C 52.824219 125.820312 56.441406 129.433594 60.886719 129.433594 C 65.335938 129.433594 68.953125 125.820312 68.953125 121.371094 C 68.953125 116.921875 65.335938 113.304688 60.886719 113.304688 Z M 60.886719 125.402344 C 58.664062 125.402344 56.855469 123.59375 56.855469 121.371094 C 56.855469 119.148438 58.664062 117.339844 60.886719 117.339844 C 63.109375 117.339844 64.917969 119.148438 64.917969 121.371094 C 64.917969 123.59375 63.109375 125.402344 60.886719 125.402344 Z M 60.886719 125.402344 "/>
<path style=" stroke:none;fill-rule:nonzero;fill:rgb(0%,0%,0%);fill-opacity:1;" d="M 50.804688 30.644531 L 54.839844 30.644531 L 54.839844 34.675781 L 50.804688 34.675781 Z M 50.804688 30.644531 "/>
<path style=" stroke:none;fill-rule:nonzero;fill:rgb(0%,0%,0%);fill-opacity:1;" d="M 50.804688 38.710938 L 54.839844 38.710938 L 54.839844 42.742188 L 50.804688 42.742188 Z M 50.804688 38.710938 "/>
<path style=" stroke:none;fill-rule:nonzero;fill:rgb(0%,0%,0%);fill-opacity:1;" d="M 54.839844 34.675781 L 58.871094 34.675781 L 58.871094 38.710938 L 54.839844 38.710938 Z M 54.839844 34.675781 "/>
<path style=" stroke:none;fill-rule:nonzero;fill:rgb(0%,0%,0%);fill-opacity:1;" d="M 46.773438 34.675781 L 50.804688 34.675781 L 50.804688 38.710938 L 46.773438 38.710938 Z M 46.773438 34.675781 "/>
<path style=" stroke:none;fill-rule:nonzero;fill:rgb(0%,0%,0%);fill-opacity:1;" d="M 85.082031 48.789062 L 89.113281 48.789062 L 89.113281 52.824219 L 85.082031 52.824219 Z M 85.082031 48.789062 "/>
<path style=" stroke:none;fill-rule:nonzero;fill:rgb(0%,0%,0%);fill-opacity:1;" d="M 85.082031 56.855469 L 89.113281 56.855469 L 89.113281 60.886719 L 85.082031 60.886719 Z M 85.082031 56.855469 "/>
<path style=" stroke:none;fill-rule:nonzero;fill:rgb(0%,0%,0%);fill-opacity:1;" d="M 89.113281 52.824219 L 93.144531 52.824219 L 93.144531 56.855469 L 89.113281 56.855469 Z M 89.113281 52.824219 "/>
<path style=" stroke:none;fill-rule:nonzero;fill:rgb(0%,0%,0%);fill-opacity:1;" d="M 81.046875 52.824219 L 85.082031 52.824219 L 85.082031 56.855469 L 81.046875 56.855469 Z M 81.046875 52.824219 "/>
<path style=" stroke:none;fill-rule:nonzero;fill:rgb(0%,0%,0%);fill-opacity:1;" d="M 81.046875 129.433594 L 97.175781 129.433594 L 97.175781 85.082031 L 81.046875 85.082031 Z M 85.082031 121.371094 L 89.113281 121.371094 L 89.113281 117.339844 L 85.082031 117.339844 L 85.082031 89.113281 L 93.144531 89.113281 L 93.144531 125.402344 L 85.082031 125.402344 Z M 85.082031 121.371094 "/>
<path style=" stroke:none;fill-rule:nonzero;fill:rgb(0%,0%,0%);fill-opacity:1;" d="M 101.210938 129.433594 L 117.339844 129.433594 L 117.339844 85.082031 L 101.210938 85.082031 Z M 105.242188 101.210938 L 109.273438 101.210938 L 109.273438 97.175781 L 105.242188 97.175781 L 105.242188 89.113281 L 113.304688 89.113281 L 113.304688 125.402344 L 105.242188 125.402344 Z M 105.242188 101.210938 "/>
<path style=" stroke:none;fill-rule:nonzero;fill:rgb(0%,0%,0%);fill-opacity:1;" d="M 121.371094 85.082031 L 129.433594 85.082031 L 129.433594 89.113281 L 121.371094 89.113281 Z M 121.371094 85.082031 "/>
<path style=" stroke:none;fill-rule:nonzero;fill:rgb(0%,0%,0%);fill-opacity:1;" d="M 121.371094 93.144531 L 129.433594 93.144531 L 129.433594 97.175781 L 121.371094 97.175781 Z M 121.371094 93.144531 "/>
<path style=" stroke:none;fill-rule:nonzero;fill:rgb(0%,0%,0%);fill-opacity:1;" d="M 121.371094 101.210938 L 129.433594 101.210938 L 129.433594 105.242188 L 121.371094 105.242188 Z M 121.371094 101.210938 "/>
<path style=" stroke:none;fill-rule:nonzero;fill:rgb(0%,0%,0%);fill-opacity:1;" d="M 121.371094 109.273438 L 129.433594 109.273438 L 129.433594 113.304688 L 121.371094 113.304688 Z M 121.371094 109.273438 "/>
<path style=" stroke:none;fill-rule:nonzero;fill:rgb(0%,0%,0%);fill-opacity:1;" d="M 121.371094 117.339844 L 129.433594 117.339844 L 129.433594 121.371094 L 121.371094 121.371094 Z M 121.371094 117.339844 "/>
<path style=" stroke:none;fill-rule:nonzero;fill:rgb(0%,0%,0%);fill-opacity:1;" d="M 121.371094 125.402344 L 129.433594 125.402344 L 129.433594 129.433594 L 121.371094 129.433594 Z M 121.371094 125.402344 "/>
</g>
</svg>
