<?xml version="1.0" encoding="UTF-8"?>
<svg xmlns="http://www.w3.org/2000/svg" xmlns:xlink="http://www.w3.org/1999/xlink" width="192px" height="192px" viewBox="0 0 192 192" version="1.1">
<g id="surface1">
<rect x="0" y="0" width="192" height="192" style="fill:rgb(100%,100%,100%);fill-opacity:1;stroke:none;"/>
<path style=" stroke:none;fill-rule:nonzero;fill:rgb(0%,0%,0%);fill-opacity:1;" d="M 155.355469 98.582031 L 155.355469 16 L 36.644531 16 L 36.644531 98.582031 L 16 98.582031 L 16 176 L 176 176 L 176 98.582031 Z M 41.804688 21.160156 L 150.195312 21.160156 L 150.195312 98.582031 L 41.804688 98.582031 Z M 93.417969 170.839844 L 21.160156 170.839844 L 21.160156 103.742188 L 93.417969 103.742188 Z M 170.839844 170.839844 L 98.582031 170.839844 L 98.582031 103.742188 L 170.839844 103.742188 Z M 170.839844 170.839844 "/>
<path style=" stroke:none;fill-rule:nonzero;fill:rgb(0%,0%,0%);fill-opacity:1;" d="M 132.210938 28.195312 L 127.136719 27.730469 C 106.492188 25.855469 85.503906 25.855469 64.859375 27.730469 L 59.785156 28.195312 C 53.941406 28.726562 49.28125 33.152344 48.449219 38.960938 C 47.464844 45.875 46.96875 52.910156 46.96875 59.871094 C 46.96875 66.832031 47.464844 73.867188 48.453125 80.78125 C 49.28125 86.589844 53.945312 91.015625 59.789062 91.546875 L 64.863281 92.007812 C 75.183594 92.945312 85.660156 93.417969 96 93.417969 C 106.339844 93.417969 116.816406 92.945312 127.136719 92.007812 L 132.210938 91.546875 C 138.054688 91.015625 142.714844 86.585938 143.546875 80.777344 C 144.535156 73.867188 145.03125 66.832031 145.03125 59.871094 C 145.03125 52.910156 144.535156 45.875 143.546875 38.960938 C 142.71875 33.152344 138.054688 28.726562 132.210938 28.195312 Z M 138.4375 80.046875 C 137.949219 83.476562 135.191406 86.09375 131.742188 86.40625 L 126.667969 86.867188 C 106.335938 88.710938 85.660156 88.710938 65.328125 86.867188 L 60.253906 86.40625 C 56.800781 86.09375 54.050781 83.476562 53.558594 80.046875 C 52.613281 73.378906 52.128906 66.589844 52.128906 59.871094 C 52.128906 53.152344 52.613281 46.363281 53.5625 39.695312 C 54.050781 36.265625 56.808594 33.648438 60.257812 33.335938 L 65.332031 32.875 C 75.496094 31.953125 85.816406 31.484375 96 31.484375 C 106.183594 31.484375 116.503906 31.953125 126.671875 32.875 L 131.746094 33.335938 C 135.195312 33.648438 137.949219 36.265625 138.4375 39.695312 C 139.386719 46.363281 139.871094 53.152344 139.871094 59.871094 C 139.871094 66.589844 139.386719 73.378906 138.4375 80.046875 Z M 138.4375 80.046875 "/>
<path style=" stroke:none;fill-rule:nonzero;fill:rgb(0%,0%,0%);fill-opacity:1;" d="M 26.324219 139.871094 L 88.257812 139.871094 L 88.257812 108.902344 L 26.324219 108.902344 Z M 70.195312 114.066406 L 83.097656 114.066406 L 83.097656 121.804688 L 70.195312 121.804688 Z M 70.195312 126.96875 L 83.097656 126.96875 L 83.097656 134.710938 L 70.195312 134.710938 Z M 49.546875 114.066406 L 65.03125 114.066406 L 65.03125 121.804688 L 49.546875 121.804688 Z M 49.546875 126.96875 L 65.03125 126.96875 L 65.03125 134.710938 L 49.546875 134.710938 Z M 31.484375 114.066406 L 44.386719 114.066406 L 44.386719 121.804688 L 31.484375 121.804688 Z M 31.484375 126.96875 L 44.386719 126.96875 L 44.386719 134.710938 L 31.484375 134.710938 Z M 31.484375 126.96875 "/>
<path style=" stroke:none;fill-rule:nonzero;fill:rgb(0%,0%,0%);fill-opacity:1;" d="M 36.644531 145.03125 C 30.953125 145.03125 26.324219 149.660156 26.324219 155.355469 C 26.324219 161.046875 30.953125 165.675781 36.644531 165.675781 C 42.339844 165.675781 46.96875 161.046875 46.96875 155.355469 C 46.96875 149.660156 42.339844 145.03125 36.644531 145.03125 Z M 36.644531 160.515625 C 33.796875 160.515625 31.484375 158.203125 31.484375 155.355469 C 31.484375 152.507812 33.796875 150.195312 36.644531 150.195312 C 39.492188 150.195312 41.804688 152.507812 41.804688 155.355469 C 41.804688 158.203125 39.492188 160.515625 36.644531 160.515625 Z M 36.644531 160.515625 "/>
<path style=" stroke:none;fill-rule:nonzero;fill:rgb(0%,0%,0%);fill-opacity:1;" d="M 57.289062 145.03125 C 51.597656 145.03125 46.96875 149.660156 46.96875 155.355469 C 46.96875 161.046875 51.597656 165.675781 57.289062 165.675781 C 62.984375 165.675781 67.613281 161.046875 67.613281 155.355469 C 67.613281 149.660156 62.984375 145.03125 57.289062 145.03125 Z M 57.289062 160.515625 C 54.445312 160.515625 52.128906 158.203125 52.128906 155.355469 C 52.128906 152.507812 54.445312 150.195312 57.289062 150.195312 C 60.136719 150.195312 62.453125 152.507812 62.453125 155.355469 C 62.453125 158.203125 60.136719 160.515625 57.289062 160.515625 Z M 57.289062 160.515625 "/>
<path style=" stroke:none;fill-rule:nonzero;fill:rgb(0%,0%,0%);fill-opacity:1;" d="M 77.933594 145.03125 C 72.242188 145.03125 67.613281 149.660156 67.613281 155.355469 C 67.613281 161.046875 72.242188 165.675781 77.933594 165.675781 C 83.628906 165.675781 88.257812 161.046875 88.257812 155.355469 C 88.257812 149.660156 83.628906 145.03125 77.933594 145.03125 Z M 77.933594 160.515625 C 75.089844 160.515625 72.773438 158.203125 72.773438 155.355469 C 72.773438 152.507812 75.089844 150.195312 77.933594 150.195312 C 80.78125 150.195312 83.097656 152.507812 83.097656 155.355469 C 83.097656 158.203125 80.78125 160.515625 77.933594 160.515625 Z M 77.933594 160.515625 "/>
<path style=" stroke:none;fill-rule:nonzero;fill:rgb(0%,0%,0%);fill-opacity:1;" d="M 65.03125 39.226562 L 70.195312 39.226562 L 70.195312 44.386719 L 65.03125 44.386719 Z M 65.03125 39.226562 "/>
<path style=" stroke:none;fill-rule:nonzero;fill:rgb(0%,0%,0%);fill-opacity:1;" d="M 65.03125 49.546875 L 70.195312 49.546875 L 70.195312 54.710938 L 65.03125 54.710938 Z M 65.03125 49.546875 "/>
<path style=" stroke:none;fill-rule:nonzero;fill:rgb(0%,0%,0%);fill-opacity:1;" d="M 70.195312 44.386719 L 75.355469 44.386719 L 75.355469 49.546875 L 70.195312 49.546875 Z M 70.195312 44.386719 "/>
<path style=" stroke:none;fill-rule:nonzero;fill:rgb(0%,0%,0%);fill-opacity:1;" d="M 59.871094 44.386719 L 65.03125 44.386719 L 65.03125 49.546875 L 59.871094 49.546875 Z M 59.871094 44.386719 "/>
<path style=" stroke:none;fill-rule:nonzero;fill:rgb(0%,0%,0%);fill-opacity:1;" d="M 108.902344 62.453125 L 114.066406 62.453125 L 114.066406 67.613281 L 108.902344 67.613281 Z M 108.902344 62.453125 "/>
<path style=" stroke:none;fill-rule:nonzero;fill:rgb(0%,0%,0%);fill-opacity:1;" d="M 108.902344 72.773438 L 114.066406 72.773438 L 114.066406 77.933594 L 108.902344 77.933594 Z M 108.902344 72.773438 "/>
<path style=" stroke:none;fill-rule:nonzero;fill:rgb(0%,0%,0%);fill-opacity:1;" d="M 114.066406 67.613281 L 119.226562 67.613281 L 119.226562 72.773438 L 114.066406 72.773438 Z M 114.066406 67.613281 "/>
<path style=" stroke:none;fill-rule:nonzero;fill:rgb(0%,0%,0%);fill-opacity:1;" d="M 103.742188 67.613281 L 108.902344 67.613281 L 108.902344 72.773438 L 103.742188 72.773438 Z M 103.742188 67.613281 "/>
<path style=" stroke:none;fill-rule:nonzero;fill:rgb(0%,0%,0%);fill-opacity:1;" d="M 103.742188 165.675781 L 124.386719 165.675781 L 124.386719 108.902344 L 103.742188 108.902344 Z M 108.902344 155.355469 L 114.066406 155.355469 L 114.066406 150.195312 L 108.902344 150.195312 L 108.902344 114.066406 L 119.226562 114.066406 L 119.226562 160.515625 L 108.902344 160.515625 Z M 108.902344 155.355469 "/>
<path style=" stroke:none;fill-rule:nonzero;fill:rgb(0%,0%,0%);fill-opacity:1;" d="M 129.546875 165.675781 L 150.195312 165.675781 L 150.195312 108.902344 L 129.546875 108.902344 Z M 134.710938 129.546875 L 139.871094 129.546875 L 139.871094 124.386719 L 134.710938 124.386719 L 134.710938 114.066406 L 145.03125 114.066406 L 145.03125 160.515625 L 134.710938 160.515625 Z M 134.710938 129.546875 "/>
<path style=" stroke:none;fill-rule:nonzero;fill:rgb(0%,0%,0%);fill-opacity:1;" d="M 155.355469 108.902344 L 165.675781 108.902344 L 165.675781 114.066406 L 155.355469 114.066406 Z M 155.355469 108.902344 "/>
<path style=" stroke:none;fill-rule:nonzero;fill:rgb(0%,0%,0%);fill-opacity:1;" d="M 155.355469 119.226562 L 165.675781 119.226562 L 165.675781 124.386719 L 155.355469 124.386719 Z M 155.355469 119.226562 "/>
<path style=" stroke:none;fill-rule:nonzero;fill:rgb(0%,0%,0%);fill-opacity:1;" d="M 155.355469 129.546875 L 165.675781 129.546875 L 165.675781 134.710938 L 155.355469 134.710938 Z M 155.355469 129.546875 "/>
<path style=" stroke:none;fill-rule:nonzero;fill:rgb(0%,0%,0%);fill-opacity:1;" d="M 155.355469 139.871094 L 165.675781 139.871094 L 165.675781 145.03125 L 155.355469 145.03125 Z M 155.355469 139.871094 "/>
<path style=" stroke:none;fill-rule:nonzero;fill:rgb(0%,0%,0%);fill-opacity:1;" d="M 155.355469 150.195312 L 165.675781 150.195312 L 165.675781 155.355469 L 155.355469 155.355469 Z M 155.355469 150.195312 "/>
<path style=" stroke:none;fill-rule:nonzero;fill:rgb(0%,0%,0%);fill-opacity:1;" d="M 155.355469 160.515625 L 165.675781 160.515625 L 165.675781 165.675781 L 155.355469 165.675781 Z M 155.355469 160.515625 "/>
</g>
</svg>
