<?xml version="1.0" encoding="UTF-8"?>
<svg xmlns="http://www.w3.org/2000/svg" xmlns:xlink="http://www.w3.org/1999/xlink" width="512px" height="512px" viewBox="0 0 512 512" version="1.1">
<g id="surface1">
<rect x="0" y="0" width="512" height="512" style="fill:rgb(100%,100%,100%);fill-opacity:1;stroke:none;"/>
<path style=" stroke:none;fill-rule:nonzero;fill:rgb(0%,0%,0%);fill-opacity:1;" d="M 414.28125 262.882812 L 414.28125 42.667969 L 97.71875 42.667969 L 97.71875 262.882812 L 42.667969 262.882812 L 42.667969 469.332031 L 469.332031 469.332031 L 469.332031 262.882812 Z M 111.484375 56.429688 L 400.515625 56.429688 L 400.515625 262.882812 L 111.484375 262.882812 Z M 249.117188 455.570312 L 56.429688 455.570312 L 56.429688 276.644531 L 249.117188 276.644531 Z M 455.570312 455.570312 L 262.882812 455.570312 L 262.882812 276.644531 L 455.570312 276.644531 Z M 455.570312 455.570312 "/>
<path style=" stroke:none;fill-rule:nonzero;fill:rgb(0%,0%,0%);fill-opacity:1;" d="M 352.5625 75.183594 L 339.035156 73.949219 C 283.980469 68.949219 228.011719 68.949219 172.957031 73.949219 L 159.429688 75.183594 C 143.847656 76.601562 131.421875 88.410156 129.199219 103.898438 C 126.574219 122.335938 125.246094 141.097656 125.246094 159.65625 C 125.246094 178.214844 126.574219 196.976562 129.203125 215.410156 C 131.421875 230.902344 143.855469 242.703125 159.4375 244.121094 L 172.964844 245.355469 C 200.492188 247.851562 228.425781 249.117188 256 249.117188 C 283.574219 249.117188 311.507812 247.851562 339.035156 245.355469 L 352.5625 244.121094 C 368.144531 242.703125 380.574219 230.894531 382.796875 215.40625 C 385.425781 196.976562 386.753906 178.214844 386.753906 159.65625 C 386.753906 141.097656 385.425781 122.335938 382.796875 103.898438 C 380.578125 88.410156 368.144531 76.601562 352.5625 75.183594 Z M 369.164062 213.457031 C 367.863281 222.601562 360.511719 229.582031 351.3125 230.414062 L 337.78125 231.644531 C 283.5625 236.566406 228.425781 236.566406 174.203125 231.644531 L 160.675781 230.414062 C 151.472656 229.582031 144.128906 222.601562 142.824219 213.457031 C 140.296875 195.675781 139.011719 177.574219 139.011719 159.65625 C 139.011719 141.734375 140.296875 123.636719 142.835938 105.855469 C 144.136719 96.707031 151.488281 89.730469 160.6875 88.898438 L 174.21875 87.667969 C 201.324219 85.210938 228.84375 83.957031 256 83.957031 C 283.15625 83.957031 310.675781 85.210938 337.789062 87.667969 L 351.320312 88.898438 C 360.519531 89.730469 367.863281 96.707031 369.167969 105.855469 C 371.703125 123.636719 372.988281 141.734375 372.988281 159.65625 C 372.988281 177.574219 371.703125 195.675781 369.164062 213.457031 Z M 369.164062 213.457031 "/>
<path style=" stroke:none;fill-rule:nonzero;fill:rgb(0%,0%,0%);fill-opacity:1;" d="M 70.195312 372.988281 L 235.355469 372.988281 L 235.355469 290.410156 L 70.195312 290.410156 Z M 187.183594 304.171875 L 221.589844 304.171875 L 221.589844 324.816406 L 187.183594 324.816406 Z M 187.183594 338.582031 L 221.589844 338.582031 L 221.589844 359.226562 L 187.183594 359.226562 Z M 132.128906 304.171875 L 173.417969 304.171875 L 173.417969 324.816406 L 132.128906 324.816406 Z M 132.128906 338.582031 L 173.417969 338.582031 L 173.417969 359.226562 L 132.128906 359.226562 Z M 83.957031 304.171875 L 118.367188 304.171875 L 118.367188 324.816406 L 83.957031 324.816406 Z M 83.957031 338.582031 L 118.367188 338.582031 L 118.367188 359.226562 L 83.957031 359.226562 Z M 83.957031 338.582031 "/>
<path style=" stroke:none;fill-rule:nonzero;fill:rgb(0%,0%,0%);fill-opacity:1;" d="M 97.71875 386.753906 C 82.539062 386.753906 70.195312 399.097656 70.195312 414.28125 C 70.195312 429.460938 82.539062 441.804688 97.71875 441.804688 C 112.902344 441.804688 125.246094 429.460938 125.246094 414.28125 C 125.246094 399.097656 112.902344 386.753906 97.71875 386.753906 Z M 97.71875 428.042969 C 90.128906 428.042969 83.957031 421.871094 83.957031 414.28125 C 83.957031 406.6875 90.128906 400.515625 97.71875 400.515625 C 105.3125 400.515625 111.484375 406.6875 111.484375 414.28125 C 111.484375 421.871094 105.3125 428.042969 97.71875 428.042969 Z M 97.71875 428.042969 "/>
<path style=" stroke:none;fill-rule:nonzero;fill:rgb(0%,0%,0%);fill-opacity:1;" d="M 152.773438 386.753906 C 137.59375 386.753906 125.246094 399.097656 125.246094 414.28125 C 125.246094 429.460938 137.59375 441.804688 152.773438 441.804688 C 167.957031 441.804688 180.300781 429.460938 180.300781 414.28125 C 180.300781 399.097656 167.957031 386.753906 152.773438 386.753906 Z M 152.773438 428.042969 C 145.183594 428.042969 139.011719 421.871094 139.011719 414.28125 C 139.011719 406.6875 145.183594 400.515625 152.773438 400.515625 C 160.363281 400.515625 166.539062 406.6875 166.539062 414.28125 C 166.539062 421.871094 160.363281 428.042969 152.773438 428.042969 Z M 152.773438 428.042969 "/>
<path style=" stroke:none;fill-rule:nonzero;fill:rgb(0%,0%,0%);fill-opacity:1;" d="M 207.828125 386.753906 C 192.648438 386.753906 180.300781 399.097656 180.300781 414.28125 C 180.300781 429.460938 192.648438 441.804688 207.828125 441.804688 C 223.007812 441.804688 235.355469 429.460938 235.355469 414.28125 C 235.355469 399.097656 223.007812 386.753906 207.828125 386.753906 Z M 207.828125 428.042969 C 200.238281 428.042969 194.066406 421.871094 194.066406 414.28125 C 194.066406 406.6875 200.238281 400.515625 207.828125 400.515625 C 215.417969 400.515625 221.589844 406.6875 221.589844 414.28125 C 221.589844 421.871094 215.417969 428.042969 207.828125 428.042969 Z M 207.828125 428.042969 "/>
<path style=" stroke:none;fill-rule:nonzero;fill:rgb(0%,0%,0%);fill-opacity:1;" d="M 173.417969 104.601562 L 187.183594 104.601562 L 187.183594 118.367188 L 173.417969 118.367188 Z M 173.417969 104.601562 "/>
<path style=" stroke:none;fill-rule:nonzero;fill:rgb(0%,0%,0%);fill-opacity:1;" d="M 173.417969 132.128906 L 187.183594 132.128906 L 187.183594 145.890625 L 173.417969 145.890625 Z M 173.417969 132.128906 "/>
<path style=" stroke:none;fill-rule:nonzero;fill:rgb(0%,0%,0%);fill-opacity:1;" d="M 187.183594 118.367188 L 200.945312 118.367188 L 200.945312 132.128906 L 187.183594 132.128906 Z M 187.183594 118.367188 "/>
<path style=" stroke:none;fill-rule:nonzero;fill:rgb(0%,0%,0%);fill-opacity:1;" d="M 159.65625 118.367188 L 173.417969 118.367188 L 173.417969 132.128906 L 159.65625 132.128906 Z M 159.65625 118.367188 "/>
<path style=" stroke:none;fill-rule:nonzero;fill:rgb(0%,0%,0%);fill-opacity:1;" d="M 290.410156 166.539062 L 304.171875 166.539062 L 304.171875 180.300781 L 290.410156 180.300781 Z M 290.410156 166.539062 "/>
<path style=" stroke:none;fill-rule:nonzero;fill:rgb(0%,0%,0%);fill-opacity:1;" d="M 290.410156 194.066406 L 304.171875 194.066406 L 304.171875 207.828125 L 290.410156 207.828125 Z M 290.410156 194.066406 "/>
<path style=" stroke:none;fill-rule:nonzero;fill:rgb(0%,0%,0%);fill-opacity:1;" d="M 304.171875 180.300781 L 317.933594 180.300781 L 317.933594 194.066406 L 304.171875 194.066406 Z M 304.171875 180.300781 "/>
<path style=" stroke:none;fill-rule:nonzero;fill:rgb(0%,0%,0%);fill-opacity:1;" d="M 276.644531 180.300781 L 290.410156 180.300781 L 290.410156 194.066406 L 276.644531 194.066406 Z M 276.644531 180.300781 "/>
<path style=" stroke:none;fill-rule:nonzero;fill:rgb(0%,0%,0%);fill-opacity:1;" d="M 276.644531 441.804688 L 331.699219 441.804688 L 331.699219 290.410156 L 276.644531 290.410156 Z M 290.410156 414.28125 L 304.171875 414.28125 L 304.171875 400.515625 L 290.410156 400.515625 L 290.410156 304.171875 L 317.933594 304.171875 L 317.933594 428.042969 L 290.410156 428.042969 Z M 290.410156 414.28125 "/>
<path style=" stroke:none;fill-rule:nonzero;fill:rgb(0%,0%,0%);fill-opacity:1;" d="M 345.460938 441.804688 L 400.515625 441.804688 L 400.515625 290.410156 L 345.460938 290.410156 Z M 359.226562 345.460938 L 372.988281 345.460938 L 372.988281 331.699219 L 359.226562 331.699219 L 359.226562 304.171875 L 386.753906 304.171875 L 386.753906 428.042969 L 359.226562 428.042969 Z M 359.226562 345.460938 "/>
<path style=" stroke:none;fill-rule:nonzero;fill:rgb(0%,0%,0%);fill-opacity:1;" d="M 414.28125 290.410156 L 441.804688 290.410156 L 441.804688 304.171875 L 414.28125 304.171875 Z M 414.28125 290.410156 "/>
<path style=" stroke:none;fill-rule:nonzero;fill:rgb(0%,0%,0%);fill-opacity:1;" d="M 414.28125 317.933594 L 441.804688 317.933594 L 441.804688 331.699219 L 414.28125 331.699219 Z M 414.28125 317.933594 "/>
<path style=" stroke:none;fill-rule:nonzero;fill:rgb(0%,0%,0%);fill-opacity:1;" d="M 414.28125 345.460938 L 441.804688 345.460938 L 441.804688 359.226562 L 414.28125 359.226562 Z M 414.28125 345.460938 "/>
<path style=" stroke:none;fill-rule:nonzero;fill:rgb(0%,0%,0%);fill-opacity:1;" d="M 414.28125 372.988281 L 441.804688 372.988281 L 441.804688 386.753906 L 414.28125 386.753906 Z M 414.28125 372.988281 "/>
<path style=" stroke:none;fill-rule:nonzero;fill:rgb(0%,0%,0%);fill-opacity:1;" d="M 414.28125 400.515625 L 441.804688 400.515625 L 441.804688 414.28125 L 414.28125 414.28125 Z M 414.28125 400.515625 "/>
<path style=" stroke:none;fill-rule:nonzero;fill:rgb(0%,0%,0%);fill-opacity:1;" d="M 414.28125 428.042969 L 441.804688 428.042969 L 441.804688 441.804688 L 414.28125 441.804688 Z M 414.28125 428.042969 "/>
</g>
</svg>
